<svg width="480" height="480" viewBox="0 0 480 480" fill="none" xmlns="http://www.w3.org/2000/svg">
    <rect width="480" height="480" rx="120" fill="#FFCC01"/>
    <rect x="50" y="129" width="380" height="66" rx="19.986" fill="#F55376"/>
    <path d="M80 195H400V367.014C400 378.052 391.052 387 380.014 387H99.986C88.948 387 80 378.052 80 367.014V195Z" fill="url(#paint0_linear_294_95)"/>
    <path d="M226.986 417C215.948 417 207 408.052 207 397.014L207 129L273 129L273 397.014C273 408.052 264.052 417 253.014 417L226.986 417Z" fill="#F55376"/>
    <g clip-path="url(#clip0_294_95)">
        <path d="M314.69 117.385C312.625 121.809 309.662 125.763 305.985 129H175.015C171.338 125.763 168.375 121.809 166.31 117.385C164.246 112.961 163.125 108.163 163.017 103.291C162.858 97.96 163.8 92.6534 165.786 87.6967C167.771 82.74 170.758 78.2377 174.563 74.4662C178.368 70.6947 182.91 67.7337 187.912 65.7648C192.913 63.7959 198.268 62.8607 203.647 63.0167C208.567 63.1217 213.411 64.2319 217.877 66.2776C222.344 68.3233 226.336 71.2607 229.604 74.9057C234.126 80.0991 237.802 85.9602 240.5 92.2773C243.198 85.9602 246.874 80.0991 251.396 74.9057C254.664 71.2607 258.656 68.3233 263.123 66.2776C267.589 64.2319 272.433 63.1217 277.353 63.0167C282.732 62.8607 288.087 63.7959 293.088 65.7648C298.09 67.7337 302.632 70.6947 306.437 74.4662C310.242 78.2377 313.229 82.74 315.214 87.6967C317.2 92.6534 318.142 97.96 317.983 103.291C317.875 108.163 316.754 112.961 314.69 117.385Z" fill="#F55376"/>
    </g>
    <defs>
        <linearGradient id="paint0_linear_294_95" x1="80" y1="195" x2="400" y2="387" gradientUnits="userSpaceOnUse">
            <stop stop-color="#2100C4"/>
            <stop offset="1" stop-color="#6C19FF"/>
        </linearGradient>
        <clipPath id="clip0_294_95">
            <rect width="155" height="66" fill="white" transform="translate(163 63)"/>
        </clipPath>
    </defs>
</svg>
