<svg width="49" height="49" viewBox="0 0 49 49" fill="none" xmlns="http://www.w3.org/2000/svg">
    <path d="M36.812 21.812H12.812L12.812 44.812H36.812V21.812Z" fill="#F55376"/>
    <path d="M33.812 22.812H15.812L15.812 41.812H33.812V22.812Z" fill="#FA91AD"/>
    <path d="M36.812 3.81195L12.812 3.81195L12.812 21.812H36.812V3.81195Z" fill="#F5BC00"/>
    <path d="M22.812 6.81195H15.812V12.812H22.812V6.81195Z" fill="#FADB00"/>
    <path d="M33.8119 6.81195H26.8119V12.812H33.8119V6.81195Z" fill="#FADB00"/>
    <path d="M22.812 15.812H15.812V21.812H22.812V15.812Z" fill="#FADB00"/>
    <path d="M33.8119 15.812H26.8119V21.812H33.8119V15.812Z" fill="#FADB00"/>
    <path d="M41.812 31.1119L12.812 21.812H36.812L41.812 31.1119Z" fill="#FA91AD"/>
    <path d="M36.812 21.812H12.812L36.812 29.512V21.812Z" fill="#EB0000"/>
</svg>