<svg width="48" height="48" viewBox="0 0 48 48" fill="none" xmlns="http://www.w3.org/2000/svg">
<path d="M35 19H13L19 46H29L35 19Z" fill="#3DDAB4"/>
<path d="M30.5 19H17.5L22 46H26L30.5 19Z" fill="#00B569"/>
<path d="M32 9.5C32 7.567 30.433 6 28.5 6C28.138 6 27.796 6.071 27.467 6.173C27.3 4.396 25.821 3 24 3C22.179 3 20.7 4.396 20.533 6.173C20.204 6.071 19.862 6 19.5 6C17.567 6 16 7.567 16 9.5C16 10.245 16.237 10.932 16.633 11.5C16.237 12.068 16 12.755 16 13.5C16 15.433 17.567 17 19.5 17C19.862 17 20.204 16.929 20.533 16.827C20.7 18.604 22.179 20 24 20C25.821 20 27.3 18.604 27.467 16.827C27.796 16.929 28.138 17 28.5 17C30.433 17 32 15.433 32 13.5C32 12.755 31.763 12.068 31.367 11.5C31.763 10.932 32 10.245 32 9.5Z" fill="#4ED3DF"/>
<path d="M23 17.5C23 15.567 21.433 14 19.5 14C19.138 14 18.796 14.071 18.467 14.173C18.3 12.396 16.821 11 15 11C13.179 11 11.7 12.396 11.533 14.173C11.204 14.071 10.862 14 10.5 14C8.567 14 7 15.567 7 17.5C7 18.245 7.237 18.932 7.633 19.5C7.237 20.068 7 20.755 7 21.5C7 23.433 8.567 25 10.5 25C10.862 25 11.204 24.929 11.533 24.827C11.7 26.604 13.179 28 15 28C16.821 28 18.3 26.604 18.467 24.827C18.796 24.929 19.138 25 19.5 25C21.433 25 23 23.433 23 21.5C23 20.755 22.763 20.068 22.367 19.5C22.763 18.932 23 18.245 23 17.5Z" fill="#F55376"/>
<path d="M41 17.5C41 15.567 39.433 14 37.5 14C37.138 14 36.796 14.071 36.467 14.173C36.3 12.396 34.821 11 33 11C31.179 11 29.7 12.396 29.533 14.173C29.204 14.071 28.862 14 28.5 14C26.567 14 25 15.567 25 17.5C25 18.245 25.237 18.932 25.633 19.5C25.237 20.068 25 20.755 25 21.5C25 23.433 26.567 25 28.5 25C28.862 25 29.204 24.929 29.533 24.827C29.7 26.604 31.179 28 33 28C34.821 28 36.3 26.604 36.467 24.827C36.796 24.929 37.138 25 37.5 25C39.433 25 41 23.433 41 21.5C41 20.755 40.763 20.068 40.367 19.5C40.763 18.932 41 18.245 41 17.5Z" fill="#F55376"/>
<path d="M18.467 24.827C19.36 25.105 20.355 25.15 21.573 24.175C22.417 23.5 23.016 22.526 22.999 21.446C22.988 20.722 22.753 20.054 22.366 19.5C22.476 19.343 22.57 19.174 22.654 19H22.22C17.489 19 13.974 23.381 15 28C16.821 28 18.3 26.604 18.467 24.827Z" fill="#EB0000"/>
<path d="M29.533 24.827C28.64 25.105 27.645 25.15 26.427 24.175C25.583 23.5 24.984 22.526 25 21.446C25.011 20.722 25.246 20.054 25.633 19.5C25.523 19.343 25.429 19.174 25.345 19H25.78C30.511 19 34.026 23.381 33 28C31.179 28 29.7 26.604 29.533 24.827Z" fill="#EB0000"/>
<path d="M19.5 14C19.138 14 18.796 14.071 18.467 14.173C18.352 12.95 17.608 11.921 16.567 11.39C16.59 11.426 16.608 11.465 16.633 11.501C16.237 12.068 16 12.755 16 13.5C16 15.433 17.567 17 19.5 17C19.862 17 20.204 16.929 20.533 16.827C20.648 18.05 21.392 19.079 22.433 19.61C22.41 19.574 22.392 19.535 22.367 19.499C22.764 18.931 23 18.244 23 17.499C23 15.567 21.433 14 19.5 14Z" fill="#00B3D7"/>
<path d="M29.533 14.173C29.204 14.071 28.862 14 28.5 14C26.567 14 25 15.567 25 17.5C25 18.245 25.237 18.932 25.633 19.5C25.608 19.535 25.59 19.575 25.567 19.611C26.608 19.08 27.351 18.05 27.467 16.828C27.796 16.929 28.138 17 28.5 17C30.433 17 32 15.433 32 13.5C32 12.755 31.763 12.068 31.367 11.5C31.392 11.465 31.41 11.425 31.433 11.389C30.392 11.921 29.648 12.95 29.533 14.173Z" fill="#00B3D7"/>
</svg>
