<svg width="48" height="48" viewBox="0 0 48 48" fill="none" xmlns="http://www.w3.org/2000/svg">
<path d="M38 23H34V16C34 10.486 29.514 6 24 6C18.486 6 14 10.486 14 16V23H10V16C10 8.28 16.28 2 24 2C31.72 2 38 8.28 38 16V23Z" fill="#6C19FF"/>
<path d="M42 17H6L6 43H42V17Z" fill="#F5BC00"/>
<path d="M14.0001 17H10.0001V21H14.0001V17Z" fill="#EB7900"/>
<path d="M38.0001 17H34.0001V21H38.0001V17Z" fill="#EB7900"/>
<path d="M24 34C25.6569 34 27 32.6569 27 31C27 29.3431 25.6569 28 24 28C22.3431 28 21 29.3431 21 31C21 32.6569 22.3431 34 24 34Z" fill="#6C19FF"/>
<path d="M24 28.729L21 38H27L24 28.729Z" fill="#6C19FF"/>
</svg>
