<svg width="48" height="48" viewBox="0 0 48 48" fill="none" xmlns="http://www.w3.org/2000/svg">
<path d="M33.7689 25.9658L24.0219 30.4618L14.2749 25.9658L7.50391 40.6478L7.56791 40.6778L15.1519 40.6938L20.0869 46.4518L20.1519 46.4818L24.0219 38.0908L27.8919 46.4818L27.9569 46.4518L32.8919 40.6938L40.4759 40.6778L40.5409 40.6478L33.7689 25.9658Z" fill="#5C14F1"/>
<path d="M38.5031 23.4978C40.4351 21.5658 40.4351 18.4348 38.5031 16.5028C37.5751 15.5748 37.0541 14.3168 37.0541 13.0058V11.8928C37.0541 9.16083 34.8401 6.94683 32.1081 6.94683L30.9951 6.94683C29.6831 6.94683 28.4251 6.42583 27.4981 5.49783C25.5661 3.56583 22.4351 3.56583 20.5031 5.49783C19.5751 6.42583 18.3171 6.94683 17.0061 6.94683H15.8931C13.1611 6.94683 10.9471 9.16083 10.9471 11.8928V13.0058C10.9471 14.3178 10.4261 15.5758 9.49807 16.5028C7.56607 18.4348 7.56607 21.5658 9.49807 23.4978C10.4261 24.4258 10.9471 25.6838 10.9471 26.9948V28.1078C10.9471 30.8398 13.1611 33.0538 15.8931 33.0538H17.0061C18.3181 33.0538 19.5761 33.5748 20.5031 34.5028C22.4351 36.4348 25.5661 36.4348 27.4981 34.5028C28.4261 33.5748 29.6841 33.0538 30.9951 33.0538H32.1081C34.8401 33.0538 37.0541 30.8398 37.0541 28.1078V26.9948C37.0541 25.6838 37.5751 24.4258 38.5031 23.4978Z" fill="#FFCC01"/>
<path d="M36.1021 31.0248L33.7691 25.9668L24.022 30.4628L14.275 25.9668L11.925 31.0628C12.827 32.2718 14.268 33.0548 15.892 33.0548H17.005C18.317 33.0548 19.575 33.5758 20.502 34.5038C22.434 36.4358 25.565 36.4358 27.497 34.5038C28.425 33.5758 29.683 33.0548 30.994 33.0548H32.107C33.748 33.0538 35.2021 32.2548 36.1021 31.0248Z" fill="#EB7900"/>
<path d="M24 32C30.6274 32 36 26.6274 36 20C36 13.3726 30.6274 8 24 8C17.3726 8 12 13.3726 12 20C12 26.6274 17.3726 32 24 32Z" fill="#FADB00"/>
</svg>
