<svg width="358" height="454" viewBox="0 0 358 454" fill="none" xmlns="http://www.w3.org/2000/svg">
<g clip-path="url(#clip0_1616_4299)">
<path d="M292.601 -14.8786L260.145 -7.28271L291.477 126.6L323.934 119.004L292.601 -14.8786Z" fill="#6C19FF"/>
<path d="M426.152 133.131L238.513 24.7974L101.013 262.954L288.652 371.288L426.152 133.131Z" fill="#3DD9EB"/>
<path d="M434.11 66.528L302.492 106.313L312.137 138.221L443.755 98.4354L434.11 66.528Z" fill="#6C19FF"/>
<path d="M294.833 143.916C306.791 150.82 322.08 146.723 328.984 134.765C335.887 122.808 331.791 107.518 319.833 100.615C307.876 93.7112 292.586 97.8081 285.683 109.765C278.779 121.723 282.876 137.012 294.833 143.916Z" fill="#2100C4"/>
<path d="M353.262 91.0477L302.341 105.912L312.325 138.619L392.955 113.964L353.262 91.0477Z" fill="#2100C4"/>
<path d="M259.566 171.667L230.698 155L172.365 256.036L201.232 272.703L259.566 171.667Z" fill="#C2FFFF"/>
<path d="M296.468 241.084L267.601 224.417L230.101 289.369L258.968 306.036L296.468 241.084Z" fill="#C2FFFF"/>
</g>
<defs>
<clipPath id="clip0_1616_4299">
<rect width="400" height="400" fill="white" transform="translate(200.795 -93.2051) rotate(30)"/>
</clipPath>
</defs>
</svg>
