<svg width="48" height="48" viewBox="0 0 48 48" fill="none" xmlns="http://www.w3.org/2000/svg">
<g clip-path="url(#clip0_30_123)">
<path d="M43.9999 24C43.9999 35.045 35.0449 44 23.9999 44C12.9549 44 3.99988 35.045 3.99988 24C3.99988 12.955 12.9549 4 23.9999 4C35.0449 4 43.9999 12.955 43.9999 24Z" fill="#3DDAB4"/>
<path d="M43.9356 4.37277L19.1583 30.0842L23.226 34.0041L48.0032 8.29264L43.9356 4.37277Z" fill="#6C19FF"/>
<path d="M38.3958 10.117L19.1578 30.086L23.2248 34.005L41.7498 14.777C40.8578 13.064 39.7248 11.495 38.3958 10.117Z" fill="#2100C4"/>
<path d="M14.9736 18.2678L11.0629 22.3442L23.2271 34.0142L27.1379 29.9378L14.9736 18.2678Z" fill="#2100C4"/>
</g>
<defs>
<clipPath id="clip0_30_123">
<rect width="48" height="48" fill="white"/>
</clipPath>
</defs>
</svg>
