<svg width="353" height="540" viewBox="0 0 353 540" fill="none" xmlns="http://www.w3.org/2000/svg">
<g clip-path="url(#clip0_1616_4288)">
<path d="M151.292 440.138L160.147 442.511C173.305 434.914 180.669 430.662 193.827 423.065L205.69 378.794L170.272 369.304L151.292 440.138Z" fill="#F5BC00"/>
<path d="M208.232 227.634L217.086 230.007C230.244 222.41 237.609 218.158 250.767 210.561L262.629 166.29L227.212 156.8L208.232 227.634Z" fill="#F5BC00"/>
<path d="M179.762 333.886L188.616 336.259C201.774 328.662 209.139 324.41 222.297 316.813L234.159 272.542L198.742 263.052L179.762 333.886Z" fill="#F5BC00"/>
<path d="M243.183 132.609L-13.5918 63.8066L-103.747 400.271L153.028 469.074L243.183 132.609Z" fill="#6C19FF"/>
<path d="M236.066 159.172L219.092 154.624L200.112 225.459L217.085 230.007L236.066 159.172Z" fill="#2100C4"/>
<path d="M207.596 265.424L190.622 260.876L171.642 331.711L188.616 336.259L207.596 265.424Z" fill="#2100C4"/>
<path d="M179.125 371.676L162.151 367.128L143.171 437.962L160.145 442.511L179.125 371.676Z" fill="#2100C4"/>
<path d="M101.88 275.088L28.6952 255.421C23.8076 254.111 20.9126 249.084 22.2246 244.188C23.5342 239.3 28.5615 236.405 33.449 237.715L106.633 257.381C111.521 258.691 114.416 263.718 113.104 268.615C111.794 273.502 106.767 276.397 101.88 275.088Z" fill="#7DEBF5"/>
<path d="M87.3142 290.135L33.7898 275.793C14.877 270.726 -5.04705 280.694 -13.2291 299.295C-1.72485 320.997 18.3421 338.084 43.94 344.943C69.5378 351.802 95.4602 347.037 116.283 333.997C118.488 313.796 106.218 295.2 87.3142 290.135Z" fill="#3DD9EB"/>
<path d="M58.4138 290.924C38.589 285.612 25.8678 266.327 28.7777 246.01L31.1482 229.478C34.7638 204.226 59.6302 187.818 84.2717 194.421C108.913 201.024 122.245 227.666 112.75 251.343L106.536 266.845C98.8982 285.895 78.2386 296.236 58.4138 290.924Z" fill="#7DEBF5"/>
</g>
<defs>
<clipPath id="clip0_1616_4288">
<rect width="440" height="440" fill="white" transform="translate(-72.5635 0.556152) rotate(15)"/>
</clipPath>
</defs>
</svg>
