<svg width="48" height="48" viewBox="0 0 48 48" fill="none" xmlns="http://www.w3.org/2000/svg">
<path d="M42 32.1H6V15H42V32.1Z" fill="#3DDAB4"/>
<path d="M15.0003 25.8C16.4915 25.8 17.7003 24.5912 17.7003 23.1C17.7003 21.6088 16.4915 20.4 15.0003 20.4C13.5091 20.4 12.3003 21.6088 12.3003 23.1C12.3003 24.5912 13.5091 25.8 15.0003 25.8Z" fill="#1BA382"/>
<path d="M24 25.8C25.4912 25.8 26.7 24.5912 26.7 23.1C26.7 21.6089 25.4912 20.4 24 20.4C22.5089 20.4 21.3 21.6089 21.3 23.1C21.3 24.5912 22.5089 25.8 24 25.8Z" fill="#1BA382"/>
<path d="M32.9999 25.8C34.4911 25.8 35.6999 24.5912 35.6999 23.1C35.6999 21.6088 34.4911 20.4 32.9999 20.4C31.5088 20.4 30.2999 21.6088 30.2999 23.1C30.2999 24.5912 31.5088 25.8 32.9999 25.8Z" fill="#1BA382"/>
</svg>
