<svg width="48" height="48" viewBox="0 0 48 48" fill="none" xmlns="http://www.w3.org/2000/svg">
<path d="M22.6656 37.5714L16.3018 31.2073L14.1804 33.3286L20.5443 39.6927L22.6656 37.5714Z" fill="#F5BC00"/>
<path d="M18.4227 41.8134L12.0588 35.4493L9.93748 37.5706L16.3013 43.9347L18.4227 41.8134Z" fill="#F5BC00"/>
<path d="M18.4227 37.5714L12.0588 31.2073L9.93748 33.3286L16.3013 39.6927L18.4227 37.5714Z" fill="#F5BC00"/>
<path d="M5.97095 40.123C5.97095 37.362 5.97095 35.813 5.97095 33.052L23.3729 15.65L30.4439 22.721L13.0419 40.123C10.2799 40.123 8.73195 40.123 5.97095 40.123Z" fill="#F5BC00"/>
<path d="M29.0289 30.065C36.2086 30.065 42.0289 24.2447 42.0289 17.065C42.0289 9.8853 36.2086 4.065 29.0289 4.065C21.8492 4.065 16.0289 9.8853 16.0289 17.065C16.0289 24.2447 21.8492 30.065 29.0289 30.065Z" fill="#F5BC00"/>
<path d="M29.0291 22.065C31.7905 22.065 34.0291 19.8264 34.0291 17.065C34.0291 14.3036 31.7905 12.065 29.0291 12.065C26.2676 12.065 24.0291 14.3036 24.0291 17.065C24.0291 19.8264 26.2676 22.065 29.0291 22.065Z" fill="#FADB00"/>
<path d="M19.1298 34.0348L15.559 30.4639L9.19489 36.8277L12.7657 40.3987L19.1298 34.0348Z" fill="#EB7900"/>
</svg>
