<svg width="397" height="430" viewBox="0 0 397 430" fill="none" xmlns="http://www.w3.org/2000/svg">
<g clip-path="url(#clip0_1616_4278)">
<path d="M160.051 106.326C91.2918 124.75 50.4908 195.42 68.9149 264.179C77.6457 296.763 98.1849 322.948 124.616 339.648L102.822 388.537C102.822 388.537 226.52 355.392 226.77 355.325C295.53 336.901 336.33 266.231 317.906 197.472C299.482 128.713 228.811 87.9023 160.051 106.326Z" fill="#6C19FF"/>
<path d="M477.687 342.6L277.287 396.297C263.198 400.072 248.691 391.696 244.916 377.607C241.141 363.519 249.517 349.011 263.605 345.236L464.006 291.539C478.094 287.764 492.602 296.14 496.377 310.229C500.152 324.317 491.795 338.82 477.687 342.6Z" fill="#3DD9EB"/>
<path d="M401.318 458.377C348.073 472.644 292.585 444.88 272.069 393.716L255.384 352.072C229.901 288.478 265.692 216.919 331.868 199.187C398.045 181.455 464.825 225.551 474.567 293.343L480.934 337.731C488.74 392.301 454.554 444.113 401.318 458.377Z" fill="#3DD9EB"/>
<path d="M249.846 161.368L244.886 142.855L189.345 157.737L184.384 139.223L165.871 144.184L170.831 162.698L106.034 180.06L110.995 198.574L208.182 172.532C205.063 193.072 199.639 213.039 191.825 232.048C183.142 226.229 174.477 220.366 166.086 214.191L149.403 201.914L138.044 217.359L154.727 229.636C164.192 236.595 173.939 243.24 183.754 249.768C175.132 266.91 164.591 283.149 152.196 298.207L151.846 298.638L167.018 310.348C179.884 294.717 190.866 277.864 199.95 260.112C207.787 265.036 215.596 270.037 223.566 274.639L233.148 258.042C224.697 253.163 216.4 247.896 208.096 242.64C218.304 218.713 225.039 193.345 228.223 167.162L249.846 161.368Z" fill="#DDBAFF"/>
<path d="M366.813 269.136L337.348 277.031L324.993 368.662L335.158 406.597L362.928 399.156L355.487 371.385L357.728 341.02L362.166 308.113L384.083 333.959L402.18 358.953L409.601 386.65L436.936 379.325L426.67 341.011L366.813 269.136Z" fill="#C2FFFF"/>
<path d="M338.792 346.293L346.234 374.063L411.131 356.555L403.69 328.784L338.792 346.293Z" fill="white"/>
<path d="M319.105 203.093C261.543 223.428 231.167 287.276 252.729 345.194C303.683 318.822 331.879 260.836 319.105 203.093Z" fill="#00B3D7"/>
<path d="M384.147 334.052L357.713 341.184L355.487 371.386L355.532 371.553L402.185 358.973L402.18 358.954L384.147 334.052Z" fill="#C2FFFF"/>
</g>
<defs>
<clipPath id="clip0_1616_4278">
<rect width="460" height="460" fill="white" transform="translate(0.308594 119.366) rotate(-15)"/>
</clipPath>
</defs>
</svg>
