<svg width="144" height="36" viewBox="0 0 144 36" fill="none" xmlns="http://www.w3.org/2000/svg">
<path d="M54.8127 24.5757V28.5105C53.707 29.0634 52.6664 29.291 51.3331 29.291C47.756 29.291 45.5121 27.2423 45.5121 23.3399V15.4702H42V11.6004H45.5121V6.4623H49.9998V11.6004H54.9753V15.4702H49.9998V22.2993C49.9998 24.3155 50.9104 25.1285 52.5363 25.1285C53.3818 25.1285 54.1623 24.9334 54.8127 24.5757ZM60.9548 19.5026V28.9658H56.4346V5.61679H60.9548V13.8768C62.158 12.2833 63.6539 11.2752 65.9303 11.2752C69.4099 11.2752 71.8164 13.5516 71.8164 17.7466V28.9658H67.3287V19.275C67.3287 16.706 66.3206 15.2751 64.2718 15.2751C62.4832 15.2751 60.9548 16.706 60.9548 19.5026ZM84.7518 28.9658V26.8195C83.6136 28.4455 81.89 29.291 79.5161 29.291C75.9064 29.291 73.5 27.1772 73.5 23.9253C73.5 20.5433 76.2316 18.7222 81.3047 18.7222C82.2803 18.7222 83.1258 18.7872 84.1989 18.9173V17.8767C84.1989 15.9255 83.0933 14.7873 81.2071 14.7873C79.256 14.7873 78.0853 15.9255 77.9227 17.8767H73.8577C74.1179 13.8768 77.0121 11.2752 81.2071 11.2752C85.7599 11.2752 88.4265 13.7792 88.4265 18.0393V28.9658H84.7518ZM77.7601 23.7952C77.7601 25.2586 78.8007 26.1691 80.4917 26.1691C82.8006 26.1691 84.1989 24.9009 84.1989 22.8847V21.6489C83.1258 21.4863 82.3778 21.4213 81.5974 21.4213C79.0283 21.4213 77.7601 22.2343 77.7601 23.7952ZM95.5411 19.5026V28.9658H91.0209V11.6004H95.1834V14.0719C96.4517 12.3483 98.2403 11.2752 100.517 11.2752C103.996 11.2752 106.403 13.5516 106.403 17.7466V28.9658H101.915V19.275C101.915 16.706 100.907 15.2751 98.8581 15.2751C97.0695 15.2751 95.5411 16.706 95.5411 19.5026ZM107.859 20.2831C107.859 15.1775 110.883 11.2752 115.566 11.2752C117.81 11.2752 119.696 12.3158 121.062 14.1369V11.6004H125.192V35.2421H120.704V26.722C119.403 28.413 117.647 29.291 115.566 29.291C110.883 29.291 107.859 25.4212 107.859 20.2831ZM112.509 20.2831C112.509 23.6001 114.363 25.2586 116.574 25.2586C118.785 25.2586 120.671 23.5676 120.671 20.2831C120.671 16.9986 118.785 15.2751 116.574 15.2751C114.363 15.2751 112.509 17.0311 112.509 20.2831ZM142.592 23.405C142.592 27.0472 139.828 29.291 134.885 29.291C129.942 29.291 127.178 26.9171 126.82 23.0473H131.145C131.177 24.8358 132.706 25.974 134.95 25.974C136.706 25.974 138.039 25.4212 138.039 24.1854C138.039 23.0798 137.324 22.6245 135.665 22.2993L132.543 21.714C129.421 21.1611 127.535 19.4376 127.535 16.7385C127.535 13.519 130.299 11.2752 134.625 11.2752C138.982 11.2752 141.974 13.5841 142.299 17.3238H137.974C137.811 15.6328 136.543 14.5922 134.625 14.5922C132.966 14.5922 131.86 15.2101 131.86 16.3157C131.86 17.3563 132.576 17.7791 134.137 18.0718L137.486 18.6896C140.868 19.34 142.592 20.901 142.592 23.405Z" fill="#16171C"/>
<path d="M2.729 11.9326H31.6556V28.3859C31.6556 29.3836 30.8467 30.1925 29.8489 30.1925H4.53564C3.53786 30.1925 2.729 29.3836 2.729 28.3859V11.9326Z" fill="url(#paint0_linear_332_226)"/>
<path fill-rule="evenodd" clip-rule="evenodd" d="M22.6543 5.96582C22.9866 5.67326 23.2543 5.31593 23.4409 4.91617C23.6275 4.51629 23.7288 4.08255 23.7386 3.64208C23.7529 3.16022 23.6678 2.68054 23.4883 2.23247C23.3088 1.78441 23.0388 1.37742 22.6949 1.0365C22.351 0.69557 21.9403 0.427902 21.4882 0.249923C21.0361 0.0719448 20.5521 -0.0125881 20.0658 0.00151407C19.6211 0.0110052 19.1832 0.111355 18.7795 0.296281C18.3757 0.481207 18.0148 0.746728 17.7194 1.07622C17.3106 1.54569 16.9783 2.0755 16.7345 2.64654C16.4906 2.0755 16.1583 1.54569 15.7495 1.07622C15.4541 0.746728 15.0932 0.481207 14.6895 0.296281C14.2857 0.111355 13.8478 0.0110052 13.4031 0.00151407C12.9169 -0.0125881 12.4328 0.0719448 11.9807 0.249923C11.5286 0.427902 11.118 0.69557 10.774 1.0365C10.4301 1.37742 10.1601 1.78441 9.98064 2.23247C9.80117 2.68054 9.716 3.16022 9.73038 3.64208C9.74011 4.08255 9.84145 4.51629 10.0281 4.91617C10.2146 5.31593 10.4824 5.67326 10.8146 5.96582H2.53565C1.53786 5.96582 0.729004 6.77468 0.729004 7.77246V10.1253C0.729004 11.1231 1.53787 11.9319 2.53565 11.9319H13.7288L13.7288 30.1934C13.7288 31.1911 14.5377 32 15.5355 32H17.8883C18.8861 32 19.6949 31.1911 19.6949 30.1934V11.9319H31.4647C32.4625 11.9319 33.2714 11.1231 33.2714 10.1253V7.77246C33.2714 6.77468 32.4625 5.96582 31.4647 5.96582H22.6543Z" fill="#F55376"/>
<defs>
<linearGradient id="paint0_linear_332_226" x1="2.729" y1="11.9326" x2="32.4143" y2="28.8621" gradientUnits="userSpaceOnUse">
<stop stop-color="#2100C4"/>
<stop offset="1" stop-color="#6C19FF"/>
</linearGradient>
</defs>
</svg>
